<svg width="45" height="45" viewBox="0 0 45 45" fill="none" xmlns="http://www.w3.org/2000/svg">
<rect opacity="0.35" x="0.5" y="0.5" width="44" height="44" rx="4.5" fill="#272727" stroke="white"/>
<path d="M26.4576 21.4586L28.5406 19.3751H30.8326C31.1088 19.3751 31.3737 19.4848 31.569 19.6801C31.7643 19.8754 31.8741 20.1403 31.8741 20.4166V30.8336C31.8741 31.1098 31.7643 31.3747 31.569 31.57C31.3737 31.7653 31.1088 31.8751 30.8326 31.8751H15.2076C14.9313 31.8793 14.6569 31.8286 14.4004 31.7259C14.1439 31.6231 13.9104 31.4703 13.7135 31.2764C13.5166 31.0826 13.3602 30.8515 13.2535 30.5966C13.1468 30.3417 13.0918 30.0681 13.0918 29.7918C13.0918 29.5155 13.1468 29.2419 13.2535 28.987C13.3602 28.7322 13.5166 28.5011 13.7135 28.3072C13.9104 28.1133 14.1439 27.9606 14.4004 27.8578C14.6569 27.755 14.9313 27.7043 15.2076 27.7086M26.4576 21.4586H23.5406M26.4576 21.4586L31.5721 16.3436C31.7629 16.1489 31.8697 15.8872 31.8697 15.6146C31.8697 15.342 31.7629 15.0797 31.5721 14.8851L30.1136 13.4271C29.9189 13.2363 29.6572 13.1294 29.3846 13.1294C29.112 13.1294 28.8503 13.2363 28.6556 13.4271L23.5406 18.5421V21.4586M23.5406 21.4586V19.3751H17.2906V27.7086M17.2906 27.7086H15.2076M17.2906 27.7086V16.2501H15.2076C14.655 16.2501 14.125 16.4696 13.7343 16.8603C13.3436 17.251 13.1241 17.781 13.1241 18.3336V29.7916C13.1242 29.2391 13.3438 28.7093 13.7345 28.3186C14.1252 27.928 14.6551 27.7086 15.2076 27.7086" stroke="url(#paint0_linear_708_1287)" stroke-linecap="round" stroke-linejoin="round"/>
<defs>
<linearGradient id="paint0_linear_708_1287" x1="13.0918" y1="22.5024" x2="31.8741" y2="22.5024" gradientUnits="userSpaceOnUse">
<stop stop-color="#F0987D"/>
<stop offset="0.168269" stop-color="#CE7F63"/>
<stop offset="0.288462" stop-color="#FFBEA4"/>
<stop offset="0.600962" stop-color="#CF795F"/>
<stop offset="0.697115" stop-color="#FFAC93"/>
<stop offset="0.836538" stop-color="#D7785B"/>
<stop offset="0.971154" stop-color="#EA9278"/>
</linearGradient>
</defs>
</svg>
