<svg width="45" height="45" viewBox="0 0 45 45" fill="none" xmlns="http://www.w3.org/2000/svg">
<rect opacity="0.35" x="0.5" y="0.5" width="44" height="44" rx="4.5" fill="#272727" stroke="white"/>
<path d="M25.9648 25.6602L24.9102 26.7148L23 24.8047V31.25H21.5V24.8047L19.5898 26.7148L18.5352 25.6602L22.25 21.9336L25.9648 25.6602ZM34.7773 28.0273L28.25 34.5664L25.0977 31.4023L26.1523 30.3477L28.25 32.4336L33.7227 26.9727L34.7773 28.0273ZM14 33.5H24.5V35H12.5V11H25.5664L32 17.4336V26.0352L30.5 27.5352V18.5H24.5V12.5H14V33.5ZM26 17H29.4336L26 13.5664V17Z" fill="url(#paint0_linear_708_2389)"/>
<defs>
<linearGradient id="paint0_linear_708_2389" x1="12.5" y1="23" x2="34.7773" y2="23" gradientUnits="userSpaceOnUse">
<stop stop-color="#F0987D"/>
<stop offset="0.168269" stop-color="#CE7F63"/>
<stop offset="0.288462" stop-color="#FFBEA4"/>
<stop offset="0.600962" stop-color="#CF795F"/>
<stop offset="0.697115" stop-color="#FFAC93"/>
<stop offset="0.836538" stop-color="#D7785B"/>
<stop offset="0.971154" stop-color="#EA9278"/>
</linearGradient>
</defs>
</svg>
