<svg xmlns="http://www.w3.org/2000/svg" viewBox="0 0 316 55">
<style type="text/css">
	.logo-update-c0{fill:#C69A59;}
</style>
<path class="logo-update-c0" d="M12.1,34.4l0-13.7h0v0L24,13.8l0,0l11.9,6.9v13.7l0,0l11.9-6.9V13.8L24,0.1L0.2,13.8v27.4V55l11.9-6.9V34.4z"/>
<path d="M179.4,26.8c0-2.7,0.5-5.3,1.6-7.8c1-2.5,2.5-4.6,4.3-6.5c1.9-1.9,4-3.4,6.5-4.5c2.5-1.1,5.1-1.6,7.9-1.6
	c2.8,0,5.4,0.5,7.9,1.6c2.5,1.1,4.6,2.6,6.5,4.5c1.9,1.9,3.4,4,4.4,6.5c1.1,2.5,1.6,5.1,1.6,7.8c0,2.8-0.5,5.4-1.6,7.9
	c-1,2.5-2.5,4.6-4.4,6.5c-1.9,1.8-4,3.3-6.5,4.3c-2.5,1-5.1,1.6-7.9,1.6c-2.8,0-5.4-0.5-7.9-1.6c-2.5-1-4.6-2.5-6.5-4.3
	c-1.8-1.9-3.3-4-4.3-6.5C180,32.3,179.4,29.6,179.4,26.8z M187.6,26.8c0,1.8,0.3,3.4,0.9,5c0.6,1.5,1.5,2.9,2.7,4.1
	c1.2,1.2,2.5,2.1,4,2.7c1.5,0.6,3.2,1,4.9,1c1.7,0,3.3-0.3,4.7-1c1.5-0.6,2.8-1.6,3.8-2.7c1.1-1.2,1.9-2.5,2.5-4.1
	c0.6-1.6,0.9-3.2,0.9-5c0-1.8-0.3-3.5-1-5c-0.6-1.6-1.5-2.9-2.6-4.1c-1.1-1.2-2.4-2.1-3.8-2.8c-1.5-0.6-3.1-1-4.8-1
	c-1.7,0-3.3,0.3-4.8,1c-1.5,0.6-2.8,1.6-3.9,2.8c-1.1,1.2-2,2.5-2.6,4.1C187.9,23.3,187.6,25,187.6,26.8z M240.1,6.8
	c2.5,0,4.7,0.3,6.7,1c1.9,0.6,3.6,1.5,4.9,2.7c1.3,1.2,2.3,2.6,3,4.2c0.7,1.6,1,3.5,1,5.5c0,1.6-0.3,3.2-0.8,4.9
	c-0.5,1.6-1.3,3.1-2.4,4.4c-1.1,1.3-2.5,2.4-4.3,3.2c-1.8,0.8-4,1.2-6.7,1.2h-5.6v12.7H228V6.8H240.1z M241.4,26.4
	c1.2,0,2.2-0.2,3-0.6c0.8-0.4,1.4-0.9,1.8-1.5c0.5-0.6,0.8-1.2,1-1.9c0.2-0.7,0.3-1.3,0.3-1.9c0-0.4-0.1-1-0.2-1.6
	c-0.1-0.7-0.4-1.4-0.8-2.1c-0.4-0.7-1-1.3-1.8-1.7c-0.8-0.5-1.9-0.7-3.2-0.7h-5.6v12H241.4z M248.8,31.3l9.9,15.4h-9.1l-10.1-15.2
	L248.8,31.3z M47.8,41.3l-11.9,6.9L24,55l-11.9-6.9V20.7L24,27.5v13.7l11.9-6.9l0,0L47.8,41.3z M54.9,6.8h7.8v32.3h18.7v7.6H54.9
	V6.8z M96.7,31.9c0,1.3,0.4,2.5,1.1,3.6c0.8,1.2,1.8,2.1,3,2.8c1.3,0.7,2.6,1.1,4.1,1.1c1.6,0,3.1-0.4,4.3-1.1
	c1.3-0.7,2.3-1.7,3-2.8c0.8-1.2,1.1-2.4,1.1-3.6V6.8h7.7v25.3c0,2.9-0.7,5.5-2.2,7.8c-1.4,2.2-3.4,4-5.8,5.3
	c-2.5,1.3-5.2,1.9-8.2,1.9c-3,0-5.7-0.6-8.1-1.9c-2.4-1.3-4.3-3.1-5.8-5.3c-1.4-2.3-2.2-4.9-2.2-7.8V6.8h7.9V31.9z M130.5,46.7V5.2
	h0.1l22.1,31.4l-3.4-0.8l22.1-30.6h0.1v41.5h-7.9V22.9l0.5,4.1l-13.5,19.2h-0.1L136.8,27l1.4-3.7v23.4H130.5z M265.1,6.8h7.9v39.8
	h-7.9V6.8z M278.7,46.7l18-41.4h0.4l18,41.4H306l-11.5-29.1l5.7-3.9l-13.8,33H278.7z M291,32.3h12l2.8,6.6h-17.2L291,32.3z M194,21
	h5v5h-5V21z M201,21h5v5h-5V21z M201,28h5v5h-5V28z M194,28h5v5h-5V28z"/>
</svg>