<svg width="1440" height="2092" viewBox="0 0 1440 2092" fill="none" xmlns="http://www.w3.org/2000/svg">
<path d="M362.56 950.825H742.928V2091.93H362.56V950.825Z" fill="#232323"/>
<path d="M588.391 574.019C588.391 574.019 396.62 532.738 297.945 475.412C210.604 424.671 76.8992 337.329 76.8992 -6.10352e-05H502.914C502.914 -6.10352e-05 502.06 92.0125 515.067 189.787C520.439 230.171 535.746 293.917 573.442 353.106C612.625 414.634 659.358 457.011 692.346 479.113C738.881 510.291 822.28 570.662 1123.3 570.457V950.825H742.929V760.642C742.929 697.936 707.073 603.424 590.207 574.373" fill="#232323"/>
<path d="M484.781 0C484.781 0.0526638 483.931 92.0405 496.934 189.787C502.306 230.171 517.614 293.917 555.31 353.106C594.493 414.633 641.226 457.011 674.214 479.113C720.748 510.291 804.148 570.662 1105.16 570.457V950.825H725.65V952.842H724.795V2091.93H362.396V2092H2282.46V0H484.781ZM-1437 2092H-1437V0H-1437V2092Z" fill="#232323"/>
</svg>
