<?xml version="1.0" encoding="UTF-8"?> <svg xmlns="http://www.w3.org/2000/svg" width="138" height="32" viewBox="0 0 138 32" fill="none"><path d="M89.5536 11.3067C87.2266 9.26225 84.4177 8.26312 81.17 8.26312C77.9669 8.26312 75.158 9.26397 72.8294 11.3067C70.5025 13.3066 69.3199 16.0905 69.3199 19.6567C69.3199 23.2227 70.5025 26.005 72.8294 28.0493C75.1563 30.0494 77.9669 31.0501 81.1699 31.0501C84.4177 31.0501 87.2266 30.0494 89.5536 28.0493C91.9252 26.005 93.1078 23.2227 93.1078 19.6566C93.1078 16.0904 91.9236 13.3067 89.5536 11.3067ZM76.7828 24.222C75.5555 23.0486 74.9377 21.5252 74.9377 19.6567C74.9377 17.7865 75.5507 16.2647 76.7828 15.134C78.0099 13.9607 79.4608 13.3952 81.1683 13.3952C82.8774 13.3952 84.3714 13.9607 85.6004 15.134C86.8706 16.2647 87.4883 17.7865 87.4883 19.6567C87.4883 21.5268 86.8755 23.0486 85.6003 24.222C84.373 25.3524 82.8792 25.9179 81.1683 25.9179C79.4608 25.9179 78.0133 25.3525 76.7828 24.222ZM101.407 30.4398V0.599497H95.877V30.4398H101.407ZM119.257 8.87078V20.777C119.257 23.6463 117.692 25.5477 114.712 25.5477C111.683 25.5477 110.16 23.6479 110.16 20.777V8.87078H104.62V21.6907C104.62 26.657 107.78 31.048 114.712 31.048H114.755C121.646 31.048 124.8 26.56 124.8 21.6907V8.87078H119.257ZM63.4331 8.87078L57.903 23.4819L52.373 8.87078H46.4919L55.3161 30.44H60.4966L69.3191 8.87078H63.4331ZM46.5204 19.0469C46.5204 15.9163 45.5119 13.351 43.5362 11.3067C41.5601 9.26225 39.0179 8.26312 35.9009 8.26312C32.6979 8.26312 29.9751 9.35103 27.7359 11.4808C25.5399 13.6124 24.4452 16.3074 24.4452 19.6567C24.4452 23.0058 25.5415 25.7454 27.6929 27.8752C29.8891 30.0066 32.5223 31.0501 35.6376 31.0501C40.424 31.0501 43.8026 28.9631 45.8612 24.7445L41.7373 22.3961C40.3793 25.0486 38.4018 26.3533 35.7254 26.3533C32.4346 26.3533 30.1077 24.2663 29.7565 20.9615H46.5189V19.0469H46.5204ZM35.7221 12.4373C38.8375 12.4373 40.9026 14.176 41.4276 16.9599H29.7532C30.5895 14.3946 32.8686 12.4373 35.7221 12.4373ZM24.4453 30.4401L17.0256 17.5693C21.7192 15.8734 24.0461 12.917 24.0461 8.61123C24.0512 3.34916 19.8345 0 13.1204 0H0V30.4401H5.79337V18.0903H10.7106L17.8188 30.4401H24.4453ZM13.1204 5.04346C16.5437 5.04346 18.2563 6.39103 18.2563 9.04352C18.2563 11.6959 16.5421 13.0435 13.1204 13.0435H5.79337V5.04346H13.1204ZM134.175 31.0483C130.616 31.0483 127.729 28.1871 127.729 24.6554V3.04372H133.259V8.87918H138V13.3146H133.259V24.3038C133.259 25.3392 134.105 26.1772 135.151 26.1772H138V31.0483H134.175Z" fill="#A0A0A0"></path></svg> 