<svg xmlns="http://www.w3.org/2000/svg" width="11" height="9" viewBox="0 0 11 9" fill="none"><path d="M2.97754 0.5C3.55886 0.500069 4.11562 0.692503 4.55566 1.03516L4.7373 1.19141C4.851 1.29913 4.99542 1.43142 5.16895 1.58691L5.50293 1.88672L5.83691 1.58691C6.01013 1.43135 6.154 1.29902 6.26758 1.19141C6.72827 0.755471 7.35652 0.506634 8.0166 0.504883C8.67688 0.503201 9.30719 0.748782 9.77051 1.18262C10.233 1.61569 10.4919 2.19996 10.5 2.80566C10.508 3.40862 10.2668 3.99548 9.82031 4.43848L5.5791 8.47168C5.56294 8.48705 5.53511 8.5 5.50195 8.5C5.46902 8.49988 5.44187 8.48697 5.42578 8.47168L1.18359 4.43848C0.737371 3.99787 0.495046 3.41357 0.5 2.8125C0.504988 2.20909 0.760178 1.62634 1.21777 1.19141C1.68046 0.751566 2.31301 0.5 2.97754 0.5Z" fill="white" stroke="url(#paint0_linear_314_1810)"></path><defs><linearGradient id="paint0_linear_314_1810" x1="0" y1="4.5" x2="11" y2="4.5" gradientUnits="userSpaceOnUse"><stop stop-color="#F0987D"></stop><stop offset="0.168269" stop-color="#CE7F63"></stop><stop offset="0.288462" stop-color="#FFBEA4"></stop><stop offset="0.600962" stop-color="#CF795F"></stop><stop offset="0.697115" stop-color="#FFAC93"></stop><stop offset="0.836538" stop-color="#D7785B"></stop><stop offset="0.971154" stop-color="#EA9278"></stop></linearGradient></defs></svg>