<?xml version="1.0" encoding="UTF-8"?>
<svg xmlns="http://www.w3.org/2000/svg" width="266" height="50" viewBox="0 0 266 50" fill="none">
  <path d="M17.025 37.5C13.425 37.5 10.3583 36.7167 7.825 35.15C5.29167 33.5667 3.35 31.3667 2 28.55C0.666667 25.7333 5.96046e-08 22.4667 5.96046e-08 18.75C5.96046e-08 15.0333 0.666667 11.7667 2 8.95C3.35 6.13333 5.29167 3.94167 7.825 2.375C10.3583 0.791665 13.425 -7.15256e-07 17.025 -7.15256e-07C20.6083 -7.15256e-07 23.6667 0.791665 26.2 2.375C28.75 3.94167 30.6917 6.13333 32.025 8.95C33.3583 11.7667 34.025 15.0333 34.025 18.75C34.025 22.4667 33.3583 25.7333 32.025 28.55C30.6917 31.3667 28.75 33.5667 26.2 35.15C23.6667 36.7167 20.6083 37.5 17.025 37.5ZM17.025 32.525C19.575 32.5583 21.6917 32 23.375 30.85C25.075 29.6833 26.35 28.0667 27.2 26C28.05 23.9167 28.475 21.5 28.475 18.75C28.475 16 28.05 13.6 27.2 11.55C26.35 9.48333 25.075 7.875 23.375 6.725C21.6917 5.575 19.575 4.99166 17.025 4.975C14.475 4.94167 12.35 5.5 10.65 6.65C8.96667 7.8 7.7 9.41666 6.85 11.5C6 13.5833 5.56667 16 5.55 18.75C5.53333 21.5 5.95 23.9083 6.8 25.975C7.65 28.025 8.925 29.625 10.625 30.775C12.3417 31.925 14.475 32.5083 17.025 32.525ZM55.9617 36.75V23.475C55.9617 22.425 55.8701 21.35 55.6867 20.25C55.5201 19.1333 55.1867 18.1 54.6867 17.15C54.2034 16.2 53.5117 15.4333 52.6117 14.85C51.7284 14.2667 50.5701 13.975 49.1367 13.975C48.2034 13.975 47.3201 14.1333 46.4867 14.45C45.6534 14.75 44.9201 15.2417 44.2867 15.925C43.6701 16.6083 43.1784 17.5083 42.8117 18.625C42.4617 19.7417 42.2867 21.1 42.2867 22.7L39.0367 21.475C39.0367 19.025 39.4951 16.8667 40.4117 15C41.3284 13.1167 42.6451 11.65 44.3617 10.6C46.0784 9.55 48.1534 9.025 50.5867 9.025C52.4534 9.025 54.0201 9.325 55.2867 9.925C56.5534 10.525 57.5784 11.3167 58.3617 12.3C59.1617 13.2667 59.7701 14.325 60.1867 15.475C60.6034 16.625 60.8867 17.75 61.0367 18.85C61.1867 19.95 61.2617 20.9167 61.2617 21.75V36.75H55.9617ZM36.9867 36.75V9.75H41.6617V17.55H42.2867V36.75H36.9867ZM77.4066 37.5C74.7233 37.5 72.365 36.9167 70.3316 35.75C68.315 34.5667 66.74 32.925 65.6066 30.825C64.49 28.7083 63.9316 26.2583 63.9316 23.475C63.9316 20.525 64.4816 17.9667 65.5816 15.8C66.6983 13.6333 68.2483 11.9583 70.2316 10.775C72.215 9.59167 74.5233 9 77.1566 9C79.9066 9 82.2483 9.64167 84.1816 10.925C86.115 12.1917 87.5566 14 88.5066 16.35C89.4733 18.7 89.8566 21.4917 89.6566 24.725H84.4316V22.825C84.3983 19.6917 83.7983 17.375 82.6316 15.875C81.4816 14.375 79.7233 13.625 77.3566 13.625C74.74 13.625 72.7733 14.45 71.4566 16.1C70.14 17.75 69.4816 20.1333 69.4816 23.25C69.4816 26.2167 70.14 28.5167 71.4566 30.15C72.7733 31.7667 74.6733 32.575 77.1566 32.575C78.79 32.575 80.1983 32.2083 81.3816 31.475C82.5816 30.725 83.515 29.6583 84.1816 28.275L89.3066 29.9C88.2566 32.3167 86.665 34.1917 84.5316 35.525C82.3983 36.8417 80.0233 37.5 77.4066 37.5ZM67.7816 24.725V20.65H87.0566V24.725H67.7816ZM98.7754 36.75L110.475 0.749999H118L129.7 36.75H124.275L113.5 3.9H114.85L104.2 36.75H98.7754ZM104.85 28.625V23.725H123.65V28.625H104.85ZM143.311 49.5C141.861 49.5 140.452 49.275 139.086 48.825C137.736 48.375 136.502 47.7083 135.386 46.825C134.269 45.9583 133.344 44.8833 132.611 43.6L137.436 41.15C138.019 42.3 138.852 43.1417 139.936 43.675C141.019 44.2083 142.161 44.475 143.361 44.475C144.844 44.475 146.111 44.2083 147.161 43.675C148.211 43.1583 149.002 42.375 149.536 41.325C150.086 40.275 150.352 38.975 150.336 37.425V29.875H150.961V9.75H155.586V37.475C155.586 38.1917 155.561 38.875 155.511 39.525C155.461 40.175 155.369 40.825 155.236 41.475C154.852 43.2917 154.119 44.7917 153.036 45.975C151.969 47.1583 150.602 48.0417 148.936 48.625C147.286 49.2083 145.411 49.5 143.311 49.5ZM142.911 37.5C140.394 37.5 138.219 36.875 136.386 35.625C134.569 34.375 133.161 32.675 132.161 30.525C131.177 28.3583 130.686 25.925 130.686 23.225C130.686 20.5083 131.186 18.0833 132.186 15.95C133.186 13.8 134.602 12.1083 136.436 10.875C138.286 9.625 140.477 9 143.011 9C145.561 9 147.702 9.625 149.436 10.875C151.186 12.1083 152.502 13.8 153.386 15.95C154.286 18.1 154.736 20.525 154.736 23.225C154.736 25.925 154.286 28.35 153.386 30.5C152.486 32.65 151.161 34.3583 149.411 35.625C147.661 36.875 145.494 37.5 142.911 37.5ZM143.636 32.775C145.352 32.775 146.752 32.3667 147.836 31.55C148.919 30.7333 149.711 29.6083 150.211 28.175C150.711 26.7417 150.961 25.0917 150.961 23.225C150.961 21.3583 150.702 19.7083 150.186 18.275C149.686 16.8417 148.902 15.725 147.836 14.925C146.786 14.125 145.444 13.725 143.811 13.725C142.077 13.725 140.652 14.15 139.536 15C138.419 15.85 137.586 16.9917 137.036 18.425C136.502 19.8583 136.236 21.4583 136.236 23.225C136.236 25.0083 136.502 26.625 137.036 28.075C137.586 29.5083 138.402 30.65 139.486 31.5C140.586 32.35 141.969 32.775 143.636 32.775ZM172.58 37.5C169.897 37.5 167.539 36.9167 165.505 35.75C163.489 34.5667 161.914 32.925 160.78 30.825C159.664 28.7083 159.105 26.2583 159.105 23.475C159.105 20.525 159.655 17.9667 160.755 15.8C161.872 13.6333 163.422 11.9583 165.405 10.775C167.389 9.59167 169.697 9 172.33 9C175.08 9 177.422 9.64167 179.355 10.925C181.289 12.1917 182.73 14 183.68 16.35C184.647 18.7 185.03 21.4917 184.83 24.725H179.605V22.825C179.572 19.6917 178.972 17.375 177.805 15.875C176.655 14.375 174.897 13.625 172.53 13.625C169.914 13.625 167.947 14.45 166.63 16.1C165.314 17.75 164.655 20.1333 164.655 23.25C164.655 26.2167 165.314 28.5167 166.63 30.15C167.947 31.7667 169.847 32.575 172.33 32.575C173.964 32.575 175.372 32.2083 176.555 31.475C177.755 30.725 178.689 29.6583 179.355 28.275L184.48 29.9C183.43 32.3167 181.839 34.1917 179.705 35.525C177.572 36.8417 175.197 37.5 172.58 37.5ZM162.955 24.725V20.65H182.23V24.725H162.955ZM206.657 36.75V23.475C206.657 22.425 206.565 21.35 206.382 20.25C206.215 19.1333 205.882 18.1 205.382 17.15C204.899 16.2 204.207 15.4333 203.307 14.85C202.424 14.2667 201.265 13.975 199.832 13.975C198.899 13.975 198.015 14.1333 197.182 14.45C196.349 14.75 195.615 15.2417 194.982 15.925C194.365 16.6083 193.874 17.5083 193.507 18.625C193.157 19.7417 192.982 21.1 192.982 22.7L189.732 21.475C189.732 19.025 190.19 16.8667 191.107 15C192.024 13.1167 193.34 11.65 195.057 10.6C196.774 9.55 198.849 9.025 201.282 9.025C203.149 9.025 204.715 9.325 205.982 9.925C207.249 10.525 208.274 11.3167 209.057 12.3C209.857 13.2667 210.465 14.325 210.882 15.475C211.299 16.625 211.582 17.75 211.732 18.85C211.882 19.95 211.957 20.9167 211.957 21.75V36.75H206.657ZM187.682 36.75V9.75H192.357V17.55H192.982V36.75H187.682ZM227.677 37.5C224.91 37.5 222.56 36.8833 220.627 35.65C218.694 34.4167 217.21 32.725 216.177 30.575C215.16 28.425 214.644 25.9833 214.627 23.25C214.644 20.4667 215.177 18.0083 216.227 15.875C217.277 13.725 218.777 12.0417 220.727 10.825C222.677 9.60833 225.019 9 227.752 9C230.702 9 233.219 9.73333 235.302 11.2C237.402 12.6667 238.785 14.675 239.452 17.225L234.252 18.725C233.735 17.2083 232.885 16.0333 231.702 15.2C230.535 14.35 229.194 13.925 227.677 13.925C225.96 13.925 224.552 14.3333 223.452 15.15C222.352 15.95 221.535 17.05 221.002 18.45C220.469 19.85 220.194 21.45 220.177 23.25C220.194 26.0333 220.827 28.2833 222.077 30C223.344 31.7167 225.21 32.575 227.677 32.575C229.36 32.575 230.719 32.1917 231.752 31.425C232.802 30.6417 233.602 29.525 234.152 28.075L239.452 29.325C238.569 31.9583 237.11 33.9833 235.077 35.4C233.044 36.8 230.577 37.5 227.677 37.5ZM245.218 48.75L250.443 34.525L250.518 38.725L238.743 9.75H244.193L252.993 32.125H251.393L259.793 9.75H265.093L250.193 48.75H245.218Z" fill="url(#paint0_linear_280_710)"></path>
  <defs>
    <linearGradient id="paint0_linear_280_710" x1="-1.5" y1="17.75" x2="266.5" y2="17.75" gradientUnits="userSpaceOnUse">
      <stop stop-color="#F0987D"></stop>
      <stop offset="0.168269" stop-color="#CE7F63"></stop>
      <stop offset="0.288462" stop-color="#FFBEA4"></stop>
      <stop offset="0.600962" stop-color="#CF795F"></stop>
      <stop offset="0.697115" stop-color="#FFAC93"></stop>
      <stop offset="0.836538" stop-color="#D7785B"></stop>
      <stop offset="0.971154" stop-color="#EA9278"></stop>
    </linearGradient>
  </defs>
</svg>
